<svg width="109" height="109" viewBox="0 0 109 109" fill="none" xmlns="http://www.w3.org/2000/svg">
<path d="M55.8501 108.6H53.25C24.17 108.6 0.590088 85.0199 0.590088 55.9399V53.34C0.590088 24.26 24.17 0.680054 53.25 0.680054H55.8501C84.9301 0.680054 108.51 24.26 108.51 53.34V55.9399C108.51 85.0299 84.9401 108.6 55.8501 108.6Z" fill="url(#paint0_linear_94_268)"/>
<path d="M64.0499 65.81C62.7799 65.81 61.5799 65.81 60.3099 65.81C60.3099 65.57 60.3099 65.35 60.3099 65.13C60.3099 59.53 60.3199 53.9399 60.2999 48.3399C60.2999 47.8499 60.17 47.3099 59.96 46.8699C58.53 43.9499 57.0599 41.05 55.6199 38.14C55.3899 37.68 55.1199 37.3199 54.5599 37.3299C54.0299 37.3399 53.7699 37.69 53.5499 38.13C52.0999 41.04 50.63 43.9399 49.21 46.8599C48.99 47.2999 48.8699 47.8399 48.8599 48.3299C48.8399 53.9099 48.84 59.48 48.84 65.06C48.84 65.29 48.84 65.51 48.84 65.79C47.59 65.79 46.36 65.79 45.09 65.79C45.14 63.91 44.0299 62.77 42.6899 61.64C36.5699 56.49 34.25 49.89 36.2 42.17C38.15 34.41 43.3699 29.62 51.2399 28.14C61.7899 26.15 71.8 33.3399 73.35 43.9699C74.39 51.1199 72.0099 57.0899 66.4099 61.6999C65.0699 62.7799 64.0899 63.98 64.0499 65.81ZM49.3899 37.65C49.5299 37.54 49.8899 37.39 49.9999 37.13C50.1199 36.85 50.1099 36.36 49.9399 36.14C49.4899 35.56 48.9499 35.0299 48.3699 34.5699C48.1599 34.3999 47.6799 34.3799 47.4299 34.4999C47.1799 34.6199 46.9499 34.99 46.8999 35.29C46.8099 35.89 48.5799 37.66 49.3899 37.65ZM62.2599 35.14C62.1599 35.01 62.0199 34.63 61.7599 34.52C61.4799 34.4 60.9899 34.3999 60.7699 34.5699C60.1899 35.0199 59.65 35.55 59.2 36.13C59.03 36.35 59.0199 36.8499 59.1499 37.1199C59.2699 37.3699 59.66 37.5799 59.95 37.6199C60.53 37.7099 62.2599 35.93 62.2599 35.14ZM45.9899 43.03C46.3099 43.03 46.64 43.05 46.96 43.03C47.51 43 47.9099 42.5999 47.9299 42.0999C47.9499 41.5999 47.5599 41.1299 47.0299 41.0999C46.3499 41.0599 45.66 41.0599 44.98 41.0999C44.47 41.1299 44.09 41.57 44.09 42.05C44.09 42.55 44.4899 42.98 45.0199 43.02C45.3399 43.05 45.6699 43.03 45.9899 43.03ZM63.1099 43.03C63.4299 43.03 63.76 43.05 64.08 43.03C64.63 43 65.0399 42.6099 65.0599 42.1099C65.0899 41.6099 64.6999 41.1399 64.1599 41.1099C63.4799 41.0699 62.7899 41.0699 62.1099 41.1099C61.5699 41.1399 61.19 41.6199 61.21 42.1099C61.23 42.5899 61.6199 42.99 62.1299 43.03C62.4599 43.05 62.7899 43.03 63.1099 43.03ZM53.6199 33.4799C53.6199 33.8399 53.5899 34.2 53.6299 34.56C53.6799 35.08 54.1 35.42 54.6 35.41C55.08 35.4 55.4899 35.0699 55.5199 34.5699C55.5599 33.8699 55.5599 33.1599 55.5299 32.4599C55.5099 31.9399 55.08 31.5799 54.59 31.5799C54.09 31.5799 53.6799 31.9299 53.6399 32.4499C53.5999 32.7899 53.6199 33.1399 53.6199 33.4799Z" fill="white"/>
<path d="M45.11 75.41C51.45 75.41 57.7201 75.41 63.9801 75.41C64.6001 78.06 62.51 80.94 59.76 81.01C56.3 81.11 52.84 81.09 49.38 81.01C47.16 80.96 45.26 78.99 45.11 76.77C45.08 76.34 45.11 75.9 45.11 75.41Z" fill="white"/>
<path d="M58.3198 49.6899C58.3198 55.0699 58.3198 60.42 58.3198 65.8C55.8198 65.8 53.3498 65.8 50.8398 65.8C50.8398 60.44 50.8398 55.08 50.8398 49.73C51.6098 49.97 53.3298 52.06 54.5698 49.2C55.2398 49.64 56.2598 51.7599 58.3198 49.6899Z" fill="white"/>
<path d="M45.1099 73.41C45.1099 72.8 45.1099 72.24 45.1099 71.63C51.4099 71.63 57.6999 71.63 64.0199 71.63C64.0199 72.21 64.0199 72.79 64.0199 73.41C57.7399 73.41 51.4599 73.41 45.1099 73.41Z" fill="white"/>
<path d="M45.1199 69.59C45.1199 68.98 45.1199 68.4199 45.1199 67.8199C51.4199 67.8199 57.6999 67.8199 64.0199 67.8199C64.0199 68.3899 64.0199 68.97 64.0199 69.59C57.7399 69.59 51.4499 69.59 45.1199 69.59Z" fill="white"/>
<path d="M58.0898 47.4399C57.5798 47.7799 57.1098 48.0899 56.5398 48.4699C56.1398 48.0399 55.7698 47.5999 55.3698 47.1999C54.8198 46.6599 54.3298 46.6599 53.7898 47.1999C53.3898 47.5999 53.0197 48.0299 52.6097 48.4699C52.0597 48.0999 51.5898 47.7899 51.0698 47.4399C51.4998 46.5799 51.8998 45.75 52.3398 44.93C52.3998 44.82 52.6598 44.73 52.7998 44.76C53.9898 44.99 55.1698 45 56.3698 44.77C56.5198 44.74 56.7898 44.9 56.8698 45.04C57.2898 45.81 57.6598 46.5999 58.0898 47.4399Z" fill="white"/>
<path d="M55.8201 42.92C54.9401 42.92 54.1701 42.92 53.3301 42.92C53.7601 42.07 54.1401 41.3101 54.5701 40.4301C55.0001 41.2801 55.3901 42.05 55.8201 42.92Z" fill="white"/>
<defs>
<linearGradient id="paint0_linear_94_268" x1="54.5551" y1="143.124" x2="54.5551" y2="54.1451" gradientUnits="userSpaceOnUse">
<stop stop-color="#740330"/>
<stop offset="1" stop-color="#C40330"/>
</linearGradient>
</defs>
</svg>
