<svg width="108" height="109" viewBox="0 0 108 109" fill="none" xmlns="http://www.w3.org/2000/svg">
<path d="M55.26 108.6H52.66C23.58 108.6 0 85.0199 0 55.9399V53.34C0 24.26 23.58 0.680054 52.66 0.680054H55.26C84.34 0.680054 107.92 24.26 107.92 53.34V55.9399C107.92 85.0299 84.34 108.6 55.26 108.6Z" fill="url(#paint0_linear_94_257)"/>
<path d="M52.2401 54.63C52.2401 52.72 51.57 51.09 50.22 49.74C48.87 48.39 47.24 47.72 45.33 47.72C43.42 47.72 41.79 48.39 40.44 49.74C39.09 51.09 38.42 52.72 38.42 54.63C38.42 56.54 39.09 58.17 40.44 59.52C41.79 60.87 43.42 61.55 45.33 61.55C47.24 61.55 48.87 60.87 50.22 59.52C51.56 58.17 52.2401 56.54 52.2401 54.63ZM72.97 68.46C72.97 67.52 72.63 66.71 71.94 66.03C71.25 65.35 70.45 65 69.51 65C68.57 65 67.76 65.34 67.08 66.03C66.4 66.72 66.05 67.52 66.05 68.46C66.05 69.41 66.3901 70.23 67.0601 70.9C67.7301 71.57 68.55 71.91 69.5 71.91C70.45 71.91 71.27 71.57 71.94 70.9C72.63 70.23 72.97 69.41 72.97 68.46ZM72.97 40.8101C72.97 39.8701 72.63 39.06 71.94 38.38C71.25 37.7 70.45 37.35 69.51 37.35C68.57 37.35 67.76 37.69 67.08 38.38C66.4 39.07 66.05 39.8701 66.05 40.8101C66.05 41.7601 66.3901 42.58 67.0601 43.25C67.7301 43.92 68.55 44.26 69.5 44.26C70.45 44.26 71.27 43.92 71.94 43.25C72.63 42.58 72.97 41.7601 72.97 40.8101ZM62.6 52.1801V57.17C62.6 57.35 62.54 57.53 62.41 57.7C62.28 57.87 62.14 57.97 61.98 57.98L57.8 58.63C57.6 59.26 57.31 59.9401 56.94 60.6801C57.55 61.5401 58.3601 62.58 59.3701 63.78C59.5001 63.98 59.5601 64.1599 59.5601 64.3199C59.5601 64.5399 59.5001 64.71 59.3701 64.83C58.9601 65.37 58.21 66.18 57.14 67.25C56.07 68.32 55.3601 68.86 55.0201 68.86C54.8201 68.86 54.63 68.8 54.45 68.67L51.35 66.24C50.68 66.58 49.9901 66.86 49.2701 67.08C49.0701 69.02 48.8701 70.42 48.6501 71.26C48.5201 71.69 48.2501 71.91 47.8401 71.91H42.82C42.62 71.91 42.44 71.84 42.28 71.71C42.12 71.58 42.03 71.42 42.01 71.24L41.39 67.11C40.78 66.93 40.1001 66.65 39.3701 66.27L36.1801 68.67C36.0501 68.8 35.87 68.86 35.64 68.86C35.44 68.86 35.25 68.79 35.07 68.64C32.48 66.25 31.1801 64.8099 31.1801 64.3199C31.1801 64.1599 31.2401 63.9901 31.3701 63.8101C31.5501 63.5601 31.92 63.08 32.48 62.38C33.04 61.68 33.46 61.13 33.75 60.73C33.34 59.94 33.0201 59.2 32.8101 58.52L28.7101 57.87C28.5301 57.85 28.38 57.77 28.25 57.61C28.12 57.46 28.0601 57.28 28.0601 57.08V52.09C28.0601 51.91 28.12 51.7301 28.25 51.5601C28.38 51.3901 28.5201 51.29 28.6801 51.28L32.86 50.63C33.06 50 33.35 49.32 33.72 48.58C33.11 47.72 32.3 46.68 31.29 45.48C31.16 45.28 31.1 45.0999 31.1 44.9399C31.1 44.7199 31.16 44.54 31.29 44.4C31.69 43.86 32.42 43.06 33.5 42C34.58 40.94 35.29 40.41 35.63 40.41C35.83 40.41 36.02 40.47 36.2 40.6L39.3 43.03C39.91 42.71 40.6 42.42 41.38 42.17C41.58 40.23 41.78 38.84 42 38.01C42.13 37.58 42.4001 37.36 42.8101 37.36H47.83C48.03 37.36 48.2101 37.4301 48.3701 37.5601C48.5301 37.6901 48.62 37.85 48.64 38.03L49.26 42.16C49.87 42.34 50.55 42.62 51.28 43L54.47 40.6C54.61 40.47 54.79 40.41 55.01 40.41C55.21 40.41 55.4 40.48 55.58 40.63C58.17 43.02 59.47 44.46 59.47 44.95C59.47 45.09 59.41 45.27 59.28 45.46C59.06 45.75 58.6901 46.23 58.1501 46.92C57.6101 47.61 57.21 48.14 56.94 48.54C57.35 49.4 57.66 50.14 57.86 50.75L61.9601 51.37C62.1401 51.41 62.29 51.5 62.42 51.65C62.54 51.8 62.6 51.9801 62.6 52.1801ZM79.88 66.5699V70.35C79.88 70.64 78.54 70.9199 75.86 71.1899C75.64 71.6799 75.37 72.14 75.05 72.59C75.97 74.62 76.4301 75.8699 76.4301 76.3199C76.4301 76.3899 76.39 76.46 76.32 76.51C74.12 77.79 73.01 78.4301 72.97 78.4301C72.83 78.4301 72.41 78.01 71.73 77.16C71.05 76.31 70.58 75.6999 70.33 75.3199C69.97 75.3599 69.7001 75.37 69.5201 75.37C69.3401 75.37 69.0701 75.3499 68.7101 75.3199C68.4601 75.6999 67.9901 76.31 67.3101 77.16C66.6301 78.01 66.21 78.4301 66.07 78.4301C66.03 78.4301 64.92 77.79 62.72 76.51C62.65 76.46 62.61 76.3899 62.61 76.3199C62.61 75.8699 63.0701 74.63 63.9901 72.59C63.6701 72.14 63.4001 71.6699 63.1801 71.1899C60.5001 70.9199 59.16 70.64 59.16 70.35V66.5699C59.16 66.2799 60.5001 66 63.1801 65.73C63.4101 65.21 63.6801 64.74 63.9901 64.33C63.0701 62.3 62.61 61.05 62.61 60.6C62.61 60.53 62.65 60.46 62.72 60.41C62.79 60.37 63.11 60.19 63.66 59.87C64.22 59.55 64.75 59.24 65.25 58.95C65.75 58.66 66.0201 58.52 66.0601 58.52C66.2001 58.52 66.62 58.94 67.3 59.78C67.98 60.62 68.45 61.22 68.7 61.6C69.06 61.56 69.33 61.55 69.51 61.55C69.69 61.55 69.96 61.57 70.32 61.6C71.24 60.32 72.07 59.31 72.8 58.58L72.9601 58.53C73.0301 58.53 74.1501 59.16 76.3101 60.42C76.3801 60.47 76.42 60.54 76.42 60.61C76.42 61.06 75.96 62.3 75.04 64.34C75.35 64.75 75.62 65.22 75.85 65.74C78.54 66 79.88 66.2799 79.88 66.5699ZM79.88 38.92V42.7C79.88 42.99 78.54 43.27 75.86 43.54C75.64 44.03 75.37 44.4899 75.05 44.9399C75.97 46.9699 76.4301 48.22 76.4301 48.67C76.4301 48.74 76.39 48.81 76.32 48.86C74.12 50.14 73.01 50.78 72.97 50.78C72.83 50.78 72.41 50.36 71.73 49.51C71.05 48.66 70.58 48.05 70.33 47.67C69.97 47.71 69.7001 47.72 69.5201 47.72C69.3401 47.72 69.0701 47.7 68.7101 47.67C68.4601 48.05 67.9901 48.66 67.3101 49.51C66.6301 50.36 66.21 50.78 66.07 50.78C66.03 50.78 64.92 50.14 62.72 48.86C62.65 48.81 62.61 48.74 62.61 48.67C62.61 48.22 63.0701 46.9799 63.9901 44.9399C63.6701 44.4899 63.4001 44.02 63.1801 43.54C60.5001 43.27 59.16 42.99 59.16 42.7V38.92C59.16 38.63 60.5001 38.35 63.1801 38.08C63.4101 37.56 63.6801 37.0901 63.9901 36.6801C63.0701 34.6501 62.61 33.4 62.61 32.95C62.61 32.88 62.65 32.82 62.72 32.76C62.79 32.72 63.11 32.54 63.66 32.22C64.21 31.9 64.75 31.59 65.25 31.3C65.75 31.01 66.0201 30.87 66.0601 30.87C66.2001 30.87 66.62 31.29 67.3 32.13C67.98 32.97 68.45 33.57 68.7 33.95C69.06 33.91 69.33 33.9 69.51 33.9C69.69 33.9 69.96 33.92 70.32 33.95C71.24 32.67 72.07 31.6601 72.8 30.9301L72.9601 30.88C73.0301 30.88 74.1501 31.51 76.3101 32.77C76.3801 32.82 76.42 32.89 76.42 32.96C76.42 33.41 75.96 34.6499 75.04 36.6899C75.35 37.0999 75.62 37.57 75.85 38.09C78.54 38.35 79.88 38.63 79.88 38.92Z" fill="white"/>
<defs>
<linearGradient id="paint0_linear_94_257" x1="53.9633" y1="143.124" x2="53.9633" y2="54.1451" gradientUnits="userSpaceOnUse">
<stop stop-color="#740330"/>
<stop offset="1" stop-color="#C40330"/>
</linearGradient>
</defs>
</svg>
