<svg width="109" height="109" viewBox="0 0 109 109" fill="none" xmlns="http://www.w3.org/2000/svg">
<path d="M55.5601 108.6H52.96C23.88 108.6 0.300049 85.0199 0.300049 55.9399V53.34C0.300049 24.26 23.88 0.680054 52.96 0.680054H55.5601C84.6401 0.680054 108.22 24.26 108.22 53.34V55.9399C108.21 85.0299 84.6401 108.6 55.5601 108.6Z" fill="url(#paint0_linear_94_260)"/>
<path d="M49.23 41.3299C47.42 41.4199 45.59 41.34 43.81 41.62C37.6 42.6 33.07 48.0299 33.02 54.3599C32.98 60.6499 37.42 66.1899 43.58 67.1899C45.98 67.5799 48.47 67.3899 50.92 67.4499C51.85 67.4699 52.79 67.43 53.72 67.43C54.71 67.44 55.1701 67.91 55.1901 68.9C55.2501 71.63 55.25 71.63 52.73 72.64C50.88 73.38 49.76 74.74 49.31 76.67C49.05 77.78 48.8 77.99 47.68 78C46.56 78.01 45.4401 78.01 44.3201 78C43.3301 77.99 43.02 77.7199 42.8 76.7299C42.36 74.7699 41.22 73.39 39.35 72.63C38.78 72.4 38.22 72.14 37.65 71.93C35.91 71.27 34.25 71.4599 32.68 72.4499C31.73 73.0499 31.2901 73.0199 30.5101 72.2399C29.7201 71.4499 28.92 70.6599 28.14 69.8599C27.5 69.1999 27.45 68.7099 27.96 67.9399C29.12 66.1999 29.23 64.3699 28.42 62.4599C28.22 61.9899 28.02 61.53 27.83 61.06C27.1 59.32 25.83 58.21 23.99 57.75C22.64 57.42 22.5 57.2499 22.5 55.8399C22.5 54.7699 22.49 53.71 22.5 52.64C22.51 51.74 22.8 51.3899 23.67 51.1999C25.74 50.7599 27.19 49.5799 27.91 47.5899C28.31 46.4699 28.71 45.33 28.9 44.17C29.09 43.04 28.6501 41.97 28.0101 41C27.4501 40.16 27.4901 39.6799 28.2001 38.9599C28.9801 38.1599 29.78 37.3699 30.58 36.5799C31.31 35.8599 31.7901 35.83 32.6301 36.38C34.0001 37.28 35.5 37.6 37.06 37.12C38.17 36.78 39.27 36.32 40.29 35.76C41.69 34.99 42.4901 33.7 42.8201 32.14C43.0201 31.17 43.36 30.89 44.35 30.88C45.52 30.87 46.7 30.89 47.87 30.88C48.68 30.87 49.14 31.22 49.31 32.06C49.73 34.2 50.97 35.6499 53.05 36.3599C53.48 36.5099 53.89 36.7 54.29 36.9C54.89 37.2 55.21 37.7 55.21 38.38C55.21 38.91 55.22 39.4499 55.21 39.9799C55.2 40.9699 54.73 41.4399 53.72 41.4399C52.23 41.4499 50.73 41.4399 49.24 41.4399C49.23 41.3999 49.23 41.3699 49.23 41.3299Z" fill="white"/>
<path d="M54.9001 49.8299C57.2701 49.8299 59.6501 49.8199 62.0201 49.8399C62.6501 49.8499 63.1301 49.6599 63.5801 49.1999C64.8801 47.8599 66.2301 46.57 67.5201 45.23C68.2501 44.47 69.0901 44.1 70.1501 44.12C72.2601 44.15 74.3601 44.12 76.4701 44.14C76.9401 44.14 77.2201 44.0199 77.4701 43.5699C78.5201 41.6899 80.6301 40.83 82.6601 41.4C84.6201 41.95 86.0401 43.79 86.0301 45.77C86.0201 47.87 84.6601 49.67 82.6701 50.23C80.6301 50.8 78.5501 49.9599 77.4701 48.0699C77.2201 47.6299 76.9401 47.51 76.4701 47.51C74.6001 47.53 72.7401 47.48 70.8701 47.55C70.3901 47.57 69.8201 47.8 69.4701 48.13C68.0701 49.44 66.7201 50.8099 65.3801 52.1899C64.7301 52.8599 63.9801 53.24 63.0501 53.24C57.8501 53.24 52.6501 53.25 47.4501 53.24C46.4501 53.24 46.0901 52.7599 46.0901 51.5899C46.0901 50.3599 46.4401 49.87 47.4601 49.86C49.9401 49.82 52.4201 49.8299 54.9001 49.8299ZM79.2801 45.79C79.2801 47 80.2401 47.98 81.4501 47.98C82.5901 47.98 83.5901 46.9799 83.6001 45.8299C83.6101 44.6199 82.6401 43.65 81.4201 43.66C80.2401 43.66 79.2801 44.62 79.2801 45.79Z" fill="white"/>
<path d="M56.7 55.9899C59.69 55.9899 62.67 55.98 65.66 56C66.18 56 66.46 55.85 66.71 55.39C67.71 53.59 69.82 52.7099 71.77 53.2199C73.85 53.7699 75.24 55.56 75.23 57.67C75.22 59.77 73.85 61.5599 71.85 62.0999C69.85 62.6399 67.74 61.7799 66.72 59.9599C66.46 59.4899 66.16 59.3599 65.66 59.3599C59.71 59.3799 53.77 59.3699 47.82 59.3699C47.21 59.3699 46.48 59.39 46.32 58.75C46.15 58.04 46.2 57.23 46.38 56.52C46.45 56.26 47.16 56.02 47.59 56.01C50.62 55.97 53.66 55.9899 56.7 55.9899ZM72.8 57.66C72.8 56.46 71.89 55.54 70.68 55.53C69.45 55.52 68.48 56.4799 68.48 57.6899C68.48 58.8299 69.47 59.8299 70.62 59.8499C71.82 59.8599 72.8 58.88 72.8 57.66Z" fill="white"/>
<path d="M52.6501 47.08C50.9401 47.08 49.2401 47.09 47.5301 47.08C46.4601 47.07 46.1001 46.65 46.1001 45.44C46.1001 44.17 46.4601 43.72 47.5401 43.72C50.5301 43.71 53.5101 43.7 56.5001 43.73C57.1901 43.74 57.7301 43.54 58.1801 43C58.7801 42.29 59.4201 41.61 60.0801 40.94C60.4101 40.6 60.5101 40.32 60.3001 39.83C59.2601 37.4 60.5001 34.6201 62.9601 33.7601C65.4701 32.8801 68.1301 34.22 68.9001 36.73C69.6701 39.26 68.1501 41.9201 65.5301 42.5101C64.9701 42.6401 64.3601 42.52 63.7801 42.59C63.4501 42.63 63.0501 42.73 62.8301 42.95C61.8601 43.94 60.9301 44.97 60.0001 46C59.3301 46.73 58.5301 47.1 57.5301 47.09C55.9001 47.06 54.2801 47.08 52.6501 47.08ZM62.3501 38.0201C62.3401 39.2301 63.2401 40.18 64.4301 40.2C65.6501 40.23 66.6501 39.29 66.6701 38.08C66.6901 36.9 65.6801 35.8801 64.5001 35.8801C63.3301 35.8901 62.3701 36.8501 62.3501 38.0201Z" fill="white"/>
<path d="M52.7001 62.1099C54.3301 62.1099 55.9501 62.1199 57.5801 62.1099C58.6301 62.0999 59.5001 62.45 60.1801 63.27C60.8301 64.04 61.5001 64.81 62.2101 65.53C62.4201 65.74 62.8501 65.8999 63.1401 65.8599C65.2001 65.5599 67.1901 66.61 68.0701 68.5C68.9401 70.36 68.4201 72.5799 66.8101 73.9399C65.2901 75.2199 62.9601 75.33 61.3001 74.18C59.5901 73.01 58.8601 70.84 59.6201 68.88C59.8801 68.22 59.7401 67.8299 59.2901 67.3499C57.2801 65.1599 58.1001 65.52 55.1701 65.5C52.6601 65.48 50.1601 65.5 47.6501 65.49C46.4501 65.49 46.1001 65.11 46.1001 63.81C46.1001 62.53 46.4701 62.12 47.6601 62.12C49.3401 62.11 51.0201 62.1199 52.7001 62.1099ZM66.0701 70.38C66.0701 69.23 65.1001 68.2299 63.9401 68.2099C62.7501 68.1899 61.7401 69.19 61.7401 70.39C61.7401 71.55 62.7001 72.53 63.8701 72.54C65.0801 72.56 66.0701 71.6 66.0701 70.38Z" fill="white"/>
<defs>
<linearGradient id="paint0_linear_94_260" x1="54.2592" y1="143.124" x2="54.2592" y2="54.1451" gradientUnits="userSpaceOnUse">
<stop stop-color="#740330"/>
<stop offset="1" stop-color="#C40330"/>
</linearGradient>
</defs>
</svg>
