<svg xmlns="http://www.w3.org/2000/svg" width="78" height="78" viewBox="0 0 78 78" fill="none"><path d="M54.6361 55.6822H48.0669C48.0443 55.1553 48.0041 54.6285 48.0016 54.1306C48.0016 48.1584 48.0217 42.1862 47.9765 36.2166C47.9777 35.3017 47.7947 34.3967 47.4395 33.5612C45.4121 29.0827 43.3018 24.6595 41.2291 20.2126C40.785 19.259 40.0925 18.6821 39.0812 18.661C38.0223 18.6425 37.2846 19.1879 36.8104 20.2126C34.7528 24.6174 32.645 29.001 30.6225 33.4242C30.2873 34.2197 30.1163 35.0807 30.1207 35.9506C30.0805 42.0097 30.1006 48.0688 30.1006 54.1279V55.7086C27.9577 55.7086 25.9227 55.7349 23.8902 55.6743C23.6594 55.6743 23.298 55.2107 23.2403 54.9104C22.5804 51.3592 20.8415 48.4403 18.6785 45.6899C6.58893 30.2813 13.1456 7.08014 31.3327 1.22123C34.9099 0.0659849 38.6808 -0.274977 42.3935 0.221095C46.1062 0.717167 49.6755 2.03887 52.8631 4.098C56.0508 6.15712 58.7834 8.90632 60.8788 12.1621C62.9742 15.418 64.384 19.1055 65.0143 22.9788C66.4521 31.6301 64.4372 39.3358 59.0599 46.0403C56.7944 48.7838 55.2672 52.1123 54.6361 55.6822Z" fill="#FF0000"></path><path d="M22.4884 59.8928H55.5562C56.5279 64.8052 52.9051 68.3751 47.8125 68.2466C41.8789 68.0964 35.9398 68.2175 30.0034 68.2078C24.6223 68.2006 21.4269 64.6913 22.4884 59.8928Z" fill="#FF0000"></path><path d="M43.1789 55.7143H34.8218V37.6578C37.5433 38.6362 40.4667 38.6184 43.1789 37.6072V55.7143Z" fill="#FF0000"></path><path d="M27.8574 73.8215H48.7503C48.0763 76.1247 45.5629 77.9198 42.8645 77.9629C39.8342 78.0124 36.8022 78.0124 33.7685 77.9629C31.1436 77.9245 28.7746 76.2493 27.8574 73.8215Z" fill="#FF0000"></path><path d="M76.6071 14.1011C76.5484 14.6504 76.5875 14.9239 76.4976 15.0367C75.3243 16.4761 74.196 18.0235 72.8957 19.2878C72.3775 19.7916 71.4389 19.3501 71.1905 18.4721C70.995 17.7812 70.9481 16.692 71.2668 16.1786C72.0627 14.9149 72.991 13.7856 74.0279 12.82C74.4189 12.4577 75.248 12.4625 75.731 12.7168C76.1671 12.9543 76.4018 13.7556 76.6071 14.1011Z" fill="#FF0000"></path><path d="M4.73945 32.0203C3.94223 32.0203 3.14218 32.055 2.34496 32.0203C0.91448 31.9436 -0.0410489 31.0424 0.00135651 29.8639C0.0437619 28.6854 0.931447 27.9253 2.36758 27.8832C4.06379 27.8485 5.75435 27.8485 7.43926 27.8832C8.032 27.8819 8.60256 28.0805 9.03261 28.4377C9.46265 28.795 9.71916 29.2835 9.74894 29.802C9.76713 30.3424 9.55099 30.8688 9.14399 31.2753C8.73699 31.6818 8.16932 31.9383 7.55517 31.9931C6.62508 32.0649 5.68085 32.008 4.72815 32.008L4.73945 32.0203Z" fill="#FF0000"></path><path d="M2.17514 47.3571C0.454464 47.315 -0.585111 45.6362 0.354092 44.4538C1.45654 43.1341 2.67613 41.9126 3.99858 40.8036C4.15244 40.6608 4.33493 40.5508 4.53446 40.4807C4.734 40.4106 4.94623 40.382 5.15768 40.3965C5.36913 40.411 5.57519 40.4685 5.76279 40.5652C5.95038 40.6618 6.11541 40.7957 6.24741 40.9582C6.68236 41.4873 7.14838 42.6322 6.89028 42.9577C5.66429 44.4936 4.20411 45.8516 2.7965 47.24C2.63399 47.3946 2.26834 47.3407 2.17514 47.3571Z" fill="#FF0000"></path><path d="M3.72215 12.7424C4.04611 12.802 4.4704 12.7745 4.67395 12.9329C6.27655 14.1659 7.93649 15.3667 9.36994 16.719C10.1469 17.4538 9.61936 18.3538 8.79656 18.9668C7.97376 19.5799 6.78973 19.7107 5.92966 19.1138C4.40361 18.0834 2.99518 16.9462 1.72105 15.7157C1.30822 15.3093 1.30248 14.361 1.60351 13.8467C1.92747 13.2957 2.83054 12.9628 3.48419 12.5357L3.72215 12.7424Z" fill="#FF0000"></path><path d="M73.0568 32.0225C72.2566 32.0225 71.4564 32.0523 70.6562 32.0225C69.1949 31.9579 68.25 31.1136 68.25 29.9192C68.25 28.7248 69.1552 27.9078 70.6789 27.8805C72.3247 27.8507 73.9733 27.8482 75.6191 27.8805C77.0123 27.9103 77.9657 28.7422 77.9997 29.8671C78.0089 30.4107 77.7779 30.9364 77.355 31.3347C76.9321 31.7331 76.3499 31.9732 75.7297 32.0051C74.8416 32.0647 73.9421 32.0051 73.0483 32.0051L73.0568 32.0225Z" fill="#FF0000"></path><path d="M78 45.6445C77.4551 46.1661 77.0106 46.9796 76.2419 47.2165C75.4731 47.4533 74.0751 47.3935 73.4361 47.0179C71.7726 46.005 70.2423 44.8787 68.8657 43.6539C67.9088 42.8284 68.1261 41.8594 69.1122 41.0531C70.0464 40.2899 71.5288 40.144 72.6024 40.8498C74.2081 41.9049 75.7002 43.0605 77.1696 44.2233C77.5394 44.5152 77.6367 44.9961 78 45.6445Z" fill="#FF0000"></path><path d="M34.8218 32.8402C36.2459 30.6679 37.5688 28.6594 39.0167 26.4643L43.1789 32.7765C40.3664 33.701 37.7145 33.5689 34.8218 32.8402Z" fill="#FF0000"></path></svg>