<svg xmlns="http://www.w3.org/2000/svg" width="85" height="85" viewBox="0 0 85 85" fill="none"><path d="M43.8971 58.3205H41.2021V48.0335C41.2021 43.6937 41.2022 43.6937 36.9475 43.6937C32.2888 43.6937 27.63 43.6937 22.9713 43.6937C20.7909 43.6937 20.2989 44.192 20.286 46.4198C20.2667 49.7823 20.286 53.1416 20.286 56.501C20.286 57.0603 20.2281 57.6164 20.1863 58.3237C15.5876 53.5917 12.6901 42.1796 16.5298 32.3685C20.5111 22.1844 30.4321 15.7647 37.9477 15.2664V20.1913C37.9477 22.9688 38.0345 23.0652 40.7744 23.5121V25.7045C34.899 27.7458 32.3295 33.2139 38.6841 37.5987L40.5847 35.5156C37.803 31.5391 37.7869 31.4459 39.6199 29.8771C40.768 28.9127 44.5306 29.1088 45.6948 30.1182C46.6402 30.9412 47.2448 31.9602 46.5438 33.0114C45.9874 33.8504 44.9165 34.3487 43.7427 35.2617L46.5727 37.303C49.2933 35.7471 50.4575 33.6093 50.0105 30.729C49.7468 29.0156 46.5502 26.3217 44.164 25.862V23.5089C47.0229 23.0459 47.0583 22.9945 47.0776 19.992C47.0776 18.5776 47.099 17.1642 47.1419 15.7519C47.206 15.5128 47.3 15.2827 47.4217 15.0671C56.8957 16.9959 63.8002 22.2648 67.8297 31.0215C72.2902 40.7137 70.3831 51.7915 64.839 58.494C64.7586 57.7772 64.6653 57.3143 64.6621 56.8514C64.6621 53.3152 64.6621 49.7791 64.6621 46.243C64.6621 44.1181 64.2601 43.7034 62.218 43.6969C56.9096 43.6841 51.6013 43.6841 46.2929 43.6969C44.3376 43.6969 43.9164 44.1374 43.9099 46.1112C43.8874 50.1166 43.8971 54.1221 43.8971 58.3205Z" fill="#FF0000"></path><path d="M69.2003 58.3976C78.3527 41.9707 71.3099 25.2608 61.3117 17.6453C50.561 9.45755 35.3144 9.18108 24.0845 17.4074C17.701 22.0848 13.6618 28.3855 12.0732 36.1586C10.4845 43.9316 11.9928 51.2128 15.913 58.3912C13.8355 58.3912 12.0346 58.4619 10.2433 58.3398C9.82849 58.3108 9.27857 57.6968 9.09848 57.2275C8.24752 55.0399 7.50905 52.8103 6.88595 50.5474C6.45181 48.8501 5.70893 48.0817 3.8598 48.1235C0.000726858 48.2103 0.000726769 48.1235 0.000726769 44.3495C0.000726769 42.2857 0.0264539 40.2219 0.000726769 38.1613C-0.0153527 37.1808 0.229055 36.689 1.36748 36.6343C6.02088 36.4125 5.86972 36.3129 7.4423 31.838C8.5716 28.7553 9.95042 25.7697 11.5651 22.9109C12.4752 21.2586 12.4945 20.1463 11.0409 18.944C10.0021 18.0825 9.08561 17.0795 7.72208 15.7615C9.21747 14.4081 10.6389 13.1898 11.9671 11.9039C13.2952 10.618 14.4754 9.25502 16.2056 7.40337C17.4437 8.87891 18.4857 10.1326 19.5373 11.3799C20.4056 12.415 21.3382 12.4633 22.4798 11.7239C26.1646 9.27101 30.2908 7.55693 34.6294 6.67686C36.1602 6.3779 36.8323 5.52922 36.7294 3.95404C36.6458 2.66817 36.7294 1.38231 36.7294 0H48.2262C48.2262 1.44338 48.252 2.78069 48.2262 4.11799C48.1909 5.51958 48.8437 6.36825 50.1911 6.62543C54.6432 7.53376 58.8786 9.29098 62.6656 11.801C63.7558 12.5018 64.6273 12.325 65.4634 11.3928C66.5279 10.2162 67.6277 9.07179 68.5603 8.07203L77.0342 16.4655C76.0083 17.3335 74.7541 18.3943 73.5192 19.4487C72.5094 20.3231 72.4451 21.2425 73.1976 22.3934C75.6942 26.1206 77.4276 30.3052 78.298 34.7055C78.565 36.0878 79.3625 36.7147 80.7678 36.6761C82.1057 36.6375 83.4467 36.6761 84.8906 36.6761V48.1814C83.6975 48.1814 82.4916 48.265 81.3017 48.1621C79.4429 48.0078 78.5746 48.7215 78.1533 50.6117C77.6452 52.8877 76.7319 55.0833 75.9022 57.2789C75.7285 57.7386 75.1626 58.3397 74.7413 58.3687C72.9468 58.478 71.1362 58.3976 69.2003 58.3976Z" fill="#FF0000"></path><path d="M2.56055 64.2677C4.57691 62.2585 6.61257 61.622 8.85083 61.622C31.3149 61.6048 53.7768 61.6048 76.2366 61.622C81.382 61.622 85.0321 65.4314 84.9999 70.4848C84.9678 75.3068 81.1151 79.0165 76.0533 79.0198C53.7115 79.0348 31.3685 79.0348 9.02449 79.0198C7.84794 79.043 6.67868 78.8299 5.58602 78.3931C4.49337 77.9564 3.49955 77.3048 2.66346 76.477C3.42562 76.4159 3.89514 76.3484 4.36788 76.3452C8.67074 76.3452 12.9768 76.3773 17.2797 76.3227C20.174 76.2873 22.3865 74.6542 23.2001 72.1436C23.9784 69.7326 23.3352 67.058 21.2127 65.7143C19.8752 64.8925 18.3524 64.4205 16.7844 64.3416C12.7871 64.1551 8.77044 64.2773 4.76343 64.2773L2.56055 64.2677ZM61.5657 76.3355C64.743 76.3869 67.5312 73.6834 67.6598 70.427C67.782 67.2477 64.8556 64.2709 61.6172 64.2902C60.0396 64.334 58.5388 64.9807 57.4237 66.0972C56.3087 67.2136 55.6641 68.7149 55.6228 70.2919C55.597 73.468 58.3659 76.2809 61.5657 76.3355ZM38.1573 70.2919C38.1548 68.714 37.5309 67.2005 36.4204 66.0791C35.31 64.9576 33.8023 64.3184 32.2239 64.2998C30.6496 64.3439 29.1551 65.0023 28.0603 66.1341C26.9655 67.2659 26.3574 68.7812 26.3663 70.3555C26.3751 71.9298 27.0001 73.4382 28.1075 74.5576C29.2149 75.6771 30.7167 76.3187 32.2915 76.3452C33.8701 76.313 35.3721 75.659 36.4707 74.5253C37.5692 73.3917 38.1754 71.8702 38.1573 70.2919ZM82.2889 70.308C82.2874 68.7314 81.6664 67.2184 80.5595 66.0952C79.4527 64.9719 77.9487 64.3283 76.3717 64.303C73.1558 64.2548 70.4319 66.9841 70.403 70.2598C70.3998 71.0408 70.5506 71.8147 70.8466 72.5375C71.1427 73.2603 71.5783 73.9176 72.1285 74.4721C72.6787 75.0266 73.3328 75.4673 74.0534 75.7691C74.774 76.0709 75.547 76.2279 76.3283 76.231C77.1096 76.2342 77.8838 76.0835 78.6068 75.7876C79.3299 75.4916 79.9875 75.0562 80.5422 74.5062C81.0969 73.9562 81.5378 73.3024 81.8397 72.582C82.1416 71.8617 82.2986 71.089 82.3018 70.308H82.2889ZM40.9905 70.2823C40.9731 71.859 41.5774 73.3792 42.6728 74.5138C43.7682 75.6485 45.2664 76.3064 46.8434 76.3452C50.1139 76.4127 52.9311 73.5966 52.9053 70.2855C52.8828 67.0516 50.1332 64.2966 46.9366 64.303C45.3612 64.319 43.8552 64.953 42.7429 66.0684C41.6307 67.1838 41.0013 68.6914 40.9905 70.2662V70.2823Z" fill="#FF0000"></path><path d="M73.1913 82.2247V84.7386C72.4806 84.7804 71.8503 84.8479 71.2232 84.8511C52.1208 84.8511 33.0184 84.8414 13.916 84.8222C13.2213 84.8222 12.1312 84.5585 11.9093 84.0924C11.3079 82.8291 11.9318 82.2311 13.6265 82.2279C24.4126 82.2279 35.2009 82.2279 45.9913 82.2279H73.1913V82.2247Z" fill="#FF0000"></path><path d="M47.0071 47.0243H49.8338C49.8338 48.3391 49.8338 49.596 49.8338 50.8819C49.8338 52.1678 50.4256 52.7496 51.6476 52.7625C53.3552 52.7785 55.0661 52.7625 56.793 52.7625C58.1919 52.7625 58.848 52.0585 58.8576 50.7019C58.8576 49.5349 58.8576 48.368 58.8576 47.0693H61.5075V58.4299C59.1117 58.4299 56.7673 58.4299 54.4326 58.4299C52.4291 58.4299 50.4191 58.4878 48.4221 58.3849C47.9461 58.3624 47.1035 57.8127 47.0939 57.488C46.9685 54.0323 47.0071 50.5701 47.0071 47.0243Z" fill="#FF0000"></path><path d="M35.2243 47.05H37.8549V58.2434H23.6021V47.05L26.2326 46.9342C26.2326 48.2201 26.268 49.3935 26.2326 50.5475C26.178 52.007 26.7986 52.7721 28.2973 52.7656C29.947 52.7656 31.6 52.7656 33.2497 52.7656C34.6454 52.7656 35.2886 52.0841 35.2404 50.6793C35.1921 49.5092 35.2243 48.339 35.2243 47.05Z" fill="#FF0000"></path><path d="M11.7289 67.5146V73.1113H5.01092C4.24797 73.1521 3.48321 73.1445 2.72121 73.0888C1.90759 72.9891 0.470086 72.8188 0.418631 72.5294C0.219246 71.0057 0.354319 69.4305 0.454011 67.881C0.454011 67.7396 1.02644 67.5306 1.33516 67.5306C4.85656 67.5049 8.37797 67.5146 11.7289 67.5146Z" fill="#FF0000"></path><path d="M20.2478 70.369C20.2558 70.7352 20.1874 71.099 20.047 71.4373C19.9065 71.7755 19.6971 72.0808 19.432 72.3337C19.167 72.5865 18.8521 72.7814 18.5075 72.9058C18.163 73.0303 17.7962 73.0816 17.4307 73.0565C17.0646 73.0576 16.702 72.9849 16.3646 72.8429C16.0272 72.7009 15.7219 72.4924 15.4668 72.2299C15.2117 71.9675 15.0121 71.6563 14.8799 71.3151C14.7477 70.9738 14.6855 70.6094 14.6972 70.2437C14.7215 69.5061 15.0342 68.8074 15.5682 68.2977C16.1021 67.7881 16.8147 67.508 17.5529 67.5176C17.919 67.522 18.2804 67.5999 18.6158 67.7468C18.9511 67.8936 19.2535 68.1064 19.5049 68.3724C19.7563 68.6384 19.9517 68.9523 20.0793 69.2953C20.2069 69.6383 20.2642 70.0035 20.2478 70.369Z" fill="#FF0000"></path><path d="M41.293 14.6782H43.8174V20.0339H41.293V14.6782Z" fill="#FF0000"></path><path d="M55.5068 47.0917V49.5477H53.0498V47.0917H55.5068Z" fill="#FF0000"></path><path d="M29.4517 47.0403H31.9568V49.567H29.5739C29.5449 48.7955 29.5031 48.024 29.4517 47.0403Z" fill="#FF0000"></path><path d="M61.5851 67.5178C61.9514 67.5084 62.316 67.5716 62.6578 67.7038C62.9996 67.836 63.3118 68.0345 63.5764 68.288C63.841 68.5414 64.0527 68.8447 64.1994 69.1804C64.3462 69.5161 64.4249 69.8775 64.4312 70.2438C64.4447 70.6095 64.3838 70.974 64.2524 71.3155C64.121 71.657 63.9216 71.9683 63.6664 72.2307C63.4112 72.493 63.1055 72.7008 62.7676 72.8417C62.4298 72.9826 62.0669 73.0535 61.7009 73.0502C61.3352 73.0748 60.9684 73.0231 60.6238 72.8983C60.2792 72.7734 59.9644 72.5782 59.6994 72.3251C59.4344 72.072 59.225 71.7666 59.0846 71.4282C58.9442 71.0897 58.8758 70.7258 58.8838 70.3595C58.8668 69.9937 58.9241 69.6283 59.052 69.2852C59.18 68.9421 59.376 68.6284 59.6284 68.363C59.8807 68.0975 60.1841 67.8858 60.5204 67.7406C60.8566 67.5953 61.2188 67.5195 61.5851 67.5178Z" fill="#FF0000"></path><path d="M32.4198 67.5209C33.1553 67.5809 33.839 67.9235 34.3271 68.4768C34.8153 69.0301 35.0699 69.751 35.0375 70.488C35.0119 70.8538 34.914 71.211 34.7494 71.5387C34.5849 71.8665 34.3569 72.1584 34.0788 72.3976C33.8007 72.6367 33.4779 72.8184 33.1291 72.932C32.7803 73.0457 32.4124 73.0891 32.0467 73.0597C30.4098 72.9794 29.3293 71.6581 29.4965 69.9415C29.5714 69.2365 29.919 68.5887 30.4652 68.1364C31.0114 67.6841 31.7129 67.4632 32.4198 67.5209Z" fill="#FF0000"></path><path d="M79.1434 70.366C79.1364 70.7317 79.0565 71.0923 78.9083 71.4268C78.7601 71.7612 78.5466 72.0627 78.2803 72.3136C78.0141 72.5645 77.7004 72.7597 77.3577 72.8879C77.0149 73.016 76.6501 73.0745 76.2845 73.0599C75.9182 73.0637 75.5549 72.9929 75.2168 72.852C74.8787 72.7111 74.5728 72.5029 74.3178 72.2401C74.0627 71.9773 73.8637 71.6654 73.733 71.3233C73.6023 70.9812 73.5425 70.6161 73.5574 70.2503C73.592 69.5232 73.9092 68.8383 74.4414 68.3415C74.9736 67.8447 75.6787 67.5751 76.4067 67.5902C77.1348 67.6053 77.8282 67.9038 78.3393 68.4223C78.8504 68.9407 79.1389 69.6381 79.1434 70.366Z" fill="#FF0000"></path><path d="M46.9629 67.5178C47.3288 67.519 47.6906 67.5945 48.0264 67.7398C48.3622 67.885 48.665 68.0969 48.9164 68.3627C49.1678 68.6284 49.3626 68.9424 49.489 69.2857C49.6153 69.6289 49.6705 69.9943 49.6514 70.3595C49.6514 71.9861 48.5033 73.0856 46.8664 73.0566C46.1277 73.0515 45.421 72.7546 44.9005 72.2307C44.38 71.7067 44.0879 70.9983 44.0879 70.2599C44.1265 69.5224 44.4457 68.8275 44.9802 68.3177C45.5148 67.8079 46.2241 67.5217 46.9629 67.5178Z" fill="#FF0000"></path></svg>