<svg width="86" height="86" viewBox="0 0 86 86" fill="none" xmlns="http://www.w3.org/2000/svg">
<path d="M34.0417 59.1251L59.125 43.0001L34.0417 26.8751V59.1251ZM43 78.8334C38.0431 78.8334 33.3847 77.8922 29.025 76.0097C24.6653 74.1273 20.8729 71.5748 17.6479 68.3522C14.4229 65.1272 11.8704 61.3348 9.99035 56.9751C8.1103 52.6154 7.16908 47.957 7.16669 43.0001C7.16669 38.0431 8.10791 33.3848 9.99035 29.0251C11.8728 24.6654 14.4253 20.873 17.6479 17.648C20.8729 14.423 24.6653 11.8705 29.025 9.99042C33.3847 8.11036 38.0431 7.16914 43 7.16675C47.957 7.16675 52.6153 8.10797 56.975 9.99042C61.3347 11.8729 65.1271 14.4254 68.3521 17.648C71.5771 20.873 74.1308 24.6654 76.0133 29.0251C77.8957 33.3848 78.8357 38.0431 78.8334 43.0001C78.8334 47.957 77.8921 52.6154 76.0097 56.9751C74.1272 61.3348 71.5747 65.1272 68.3521 68.3522C65.1271 71.5772 61.3347 74.1309 56.975 76.0133C52.6153 77.8958 47.957 78.8358 43 78.8334Z" fill="#FF5544"/>
</svg>
