<svg xmlns="http://www.w3.org/2000/svg" width="87" height="85" viewBox="0 0 87 85" fill="none"><path d="M60.1165 13.8088H61.2764C67.2977 13.8088 73.3225 13.8475 79.3473 13.7772C80.6936 13.7772 81.024 14.2024 81.0205 15.4919C80.9806 31.4136 80.9677 47.3272 80.9818 63.2326C80.9818 63.7491 80.9326 64.2656 80.8974 64.9508H79.1399C69.3857 64.9508 59.6314 64.9754 49.8807 64.9192C48.4922 64.9192 47.9896 65.3057 48.1232 66.676C48.2251 67.709 48.1442 68.7561 48.1442 69.9894C44.8436 69.9894 41.7012 70.0105 38.5587 69.9473C38.3056 69.9473 37.8909 69.364 37.8557 69.0161C37.7555 68.1609 37.7484 67.2974 37.8346 66.4406C37.9506 65.2284 37.4515 64.9121 36.281 64.9156C26.5267 64.9578 16.776 64.9402 7.02172 64.9402H5.05681C5.01815 64.3043 4.95839 63.7878 4.95839 63.2748C4.95839 47.3612 4.95839 31.4476 4.92676 15.534C4.92676 14.1461 5.31341 13.7491 6.68428 13.7772C12.6599 13.8475 18.6354 13.8053 24.611 13.8123C25.1172 13.8123 25.6233 13.865 25.8413 13.8791C25.6761 17.1574 25.546 20.2811 25.3281 23.3977C25.2268 23.9438 24.9678 24.4483 24.5829 24.8489C22.161 27.6809 19.6618 30.4462 17.2927 33.3239C16.7105 34.0384 16.3707 34.9195 16.3225 35.8397C16.2417 42.4842 16.3225 49.1251 16.2487 55.7695C16.2487 57.1187 16.6002 57.7161 18.0062 57.558C19.0924 57.435 20.5371 57.8496 21.1698 57.2909C21.7533 56.7779 21.4932 55.2776 21.574 54.2129C21.7427 52.0239 22.5407 50.144 24.2068 48.6718L28.6779 44.7119C28.8713 45.8995 29.0294 46.8587 29.1841 47.8215C29.3001 48.591 29.6305 49.0126 30.5022 48.9529C31.497 48.8826 32.4953 48.9353 33.6658 48.9353V59.241H52.4396V48.9388C53.2883 48.8871 54.1393 48.8871 54.988 48.9388C56.264 49.104 56.6788 48.4785 56.7772 47.3436C56.844 46.553 57.0338 45.7695 57.206 44.7751C60.8933 47.8707 65.0375 50.4357 64.3205 56.0892C64.1728 57.2487 64.672 57.5404 65.7827 57.5439C69.6282 57.5439 69.6282 57.5896 69.6282 53.714C69.6282 47.6915 69.6563 41.669 69.593 35.65C69.5631 34.8655 69.2836 34.1109 68.7951 33.4961C66.3768 30.5973 63.8741 27.7863 61.4135 24.9191C61.062 24.508 60.6648 23.9775 60.6297 23.475C60.4223 20.3338 60.2887 17.1679 60.1165 13.8088Z" fill="#FF0000"></path><path d="M0.0198122 70.1158H32.6781C32.6781 71.4475 32.7027 72.6773 32.6781 73.9071C32.6535 74.7434 32.9417 75.0982 33.8345 75.0947C39.9507 75.0666 46.0669 75.0666 52.1831 75.0947C52.974 75.0947 53.3255 74.8242 53.3009 74.0195C53.2728 73.113 53.3395 72.203 53.3009 71.2999C53.2622 70.3969 53.5083 69.9999 54.489 70.0034C64.6826 70.028 74.8446 70.0034 85.0206 70.0245C85.4212 70.0646 85.8191 70.128 86.2122 70.2142C86.0084 72.8179 86.1419 75.4848 85.5338 77.9725C84.4793 82.347 80.3702 84.9999 75.3894 84.9999C60.338 84.9999 45.2866 84.9999 30.2351 84.9999C23.5566 84.9999 16.8534 84.9753 10.1642 84.9999C3.8969 85.028 -0.380907 79.7293 0.0268384 74.8769C0.135805 73.3695 0.0198122 71.834 0.0198122 70.1158Z" fill="#FF0000"></path><path d="M32.281 12.5543C39.5255 18.0322 47.7648 17.1397 53.772 12.4735C54.1938 14.016 54.6578 15.4356 54.9671 16.8832C55.8353 20.9345 55.2764 24.9472 54.5593 28.9563C53.7966 33.2255 53.1112 37.5087 52.3871 41.7848C52.2921 42.3435 52.1621 42.8987 52.0355 43.5417H33.8803C33.1984 39.4904 32.4989 35.5058 31.8592 31.5072C31.3811 28.5452 30.8468 25.5796 30.5797 22.5965C30.2809 19.1777 30.9488 15.8642 32.281 12.5543ZM40.348 27.3751H45.6206C45.6206 25.8748 45.6803 24.4904 45.5749 23.12C45.5075 22.9119 45.3883 22.7243 45.2284 22.575C45.0685 22.4256 44.8732 22.3194 44.661 22.2662C43.5209 22.1643 42.3739 22.1643 41.2338 22.2662C41.0388 22.3175 40.8599 22.4172 40.7137 22.556C40.5674 22.6948 40.4586 22.8683 40.3972 23.0603C40.3023 24.4728 40.348 25.8924 40.348 27.3751Z" fill="#FF0000"></path><path d="M51.0228 7.62123C47.0191 12.2066 38.692 12.189 34.9766 7.62123C36.9626 4.45889 39.9644 2.35067 42.9557 0C45.9189 2.20309 48.8786 4.40267 51.0228 7.62123Z" fill="#FF0000"></path><path d="M64.3797 44.0126C62.2707 42.1363 60.4323 40.4989 58.6256 38.844C58.5275 38.7225 58.4556 38.5821 58.4145 38.4315C58.3734 38.281 58.3638 38.1235 58.3865 37.9691C58.738 35.7168 59.1317 33.468 59.6906 31.1384C61.4481 33.6999 64.9878 35.0878 64.4113 39.111C64.2004 40.5938 64.3797 42.1293 64.3797 44.0126Z" fill="#FF0000"></path><path d="M26.3965 30.8116C26.8464 33.4714 27.2366 35.7307 27.5846 37.9725C27.6077 38.1275 27.5985 38.2856 27.5573 38.4368C27.5162 38.588 27.4441 38.729 27.3455 38.8509C25.5353 40.5129 23.6864 42.1397 21.5879 44.009C21.5879 41.3632 21.5879 39.0898 21.5879 36.8095C21.5912 36.5243 21.6874 36.2479 21.8621 36.0224C23.2927 34.3569 24.7409 32.716 26.3965 30.8116Z" fill="#FF0000"></path><path d="M39.0887 53.9775C38.5087 48.9247 38.5087 48.9247 43.37 48.9247H47.1487V53.9775H39.0887Z" fill="#FF0000"></path></svg>